<?xml version="1.0" encoding="UTF-8" standalone="no" ?>
<!DOCTYPE svg PUBLIC "-//W3C//DTD SVG 1.1//EN" "http://www.w3.org/Graphics/SVG/1.1/DTD/svg11.dtd">
<svg xmlns="http://www.w3.org/2000/svg" xmlns:xlink="http://www.w3.org/1999/xlink" version="1.1" width="1632" height="1224" viewBox="0 0 640 480" xml:space="preserve">
<desc>Created with Fabric.js 3.6.3</desc>
<defs>
</defs>
<g transform="matrix(1 0 0 1 81.03 25)"  >
<path style="stroke: rgb(0,0,0); stroke-width: 2; stroke-dasharray: none; stroke-linecap: butt; stroke-dashoffset: 0; stroke-linejoin: miter; stroke-miterlimit: 4; fill: none; fill-rule: nonzero; opacity: 1;"  transform=" translate(-95.02, -25)" d="M 86.586198 25 L 103.45652 25" stroke-linecap="round" />
</g>
<g transform="matrix(1 0 0 1 13 25)"  >
<path style="stroke: rgb(0,0,0); stroke-width: 2; stroke-dasharray: none; stroke-linecap: butt; stroke-dashoffset: 0; stroke-linejoin: miter; stroke-miterlimit: 4; fill: none; fill-rule: nonzero; opacity: 1;"  transform=" translate(-27, -25)" d="M 39 25 L 15 25" stroke-linecap="round" />
</g>
<g transform="matrix(1 0 0 1 44.59 25)"  >
<path style="stroke: none; stroke-width: 3; stroke-dasharray: none; stroke-linecap: butt; stroke-dashoffset: 0; stroke-linejoin: miter; stroke-miterlimit: 4; fill: rgb(0,0,0); fill-rule: nonzero; opacity: 1;"  transform=" translate(-58.59, -25)" d="M 38 2.59375 L 38 5 L 38 45 L 38 47.40625 L 40.109024 46.34375 L 79.184573 26.87052 L 78.840667 22.958095 L 40.109024 3.65625 L 38 2.59375 z M 41.109024 7.40625 L 76.268082 25 L 41.109024 42.59375 L 41.109024 7.40625 z" stroke-linecap="round" />
</g>
<g transform="matrix(1 0 0 1 68.46 25)"  >
<path style="stroke: rgb(0,0,0); stroke-width: 2; stroke-dasharray: none; stroke-linecap: butt; stroke-dashoffset: 0; stroke-linejoin: miter; stroke-miterlimit: 4; fill: none; fill-rule: nonzero; opacity: 1;"  transform=" translate(-76, -25)" d="M 80 25 A 4 4 0 1 1 72 25 A 4 4 0 1 1 80 25 z" stroke-linecap="round" />
</g>
</svg>